# xmcd
#
# Track frame offsets:
# 150
# 21607
# 36575
# 56447
# 79424
# 87146
# 106846
# 120860
# 135741
# 156998
# 179443
# 197385
# 226506
#
# Disc length: 3283 seconds
#
# Revision: 1
# Processed by: cddbd v1.5.2PL0 Copyright (c) Steve Scherf et al.
# Submitted via: CedeCatalogueitor 2.6.0.6 http://personales.ya.com/cdcatalogueitor
#
DISCID=a10cd10d
DTITLE=Syd Matters - Ghost Days
DYEAR=1900
DGENRE=
TTITLE0=Everything Else
TTITLE1=I Was Asley
TTITLE2=Ill Jackson
TTITLE3=It's A Micknewe
TTITLE4=Chost Days
TTITLE5=My Loser's On The Pier
TTITLE6=Cloudflakes
TTITLE7=After All Thse Years
TTITLE8=Louse
TTITLE9=Big Moon
TTITLE10=Anytime Now
TTITLE11=Me And My Horses
TTITLE12=Noby Told Me
EXTD=
EXTT0=
EXTT1=
EXTT2=
EXTT3=
EXTT4=
EXTT5=
EXTT6=
EXTT7=
EXTT8=
EXTT9=
EXTT10=
EXTT11=
EXTT12=
PLAYORDER=
